<?xml version="1.0" encoding="UTF-8"?>
<svg xmlns="http://www.w3.org/2000/svg" xmlns:xlink="http://www.w3.org/1999/xlink" width="512px" height="499px" viewBox="0 0 511 499" version="1.1">
<g id="surface1">
<path style=" stroke:none;fill-rule:nonzero;fill:rgb(20%,0%,0%);fill-opacity:1;" d="M 90.488281 0 L 420.511719 0 C 470.546875 0 511 40.515625 511 90.628906 L 511 408.371094 C 511 458.484375 470.546875 499 420.511719 499 L 90.488281 499 C 40.453125 499 0 458.484375 0 408.371094 L 0 90.628906 C 0 40.515625 40.453125 0 90.488281 0 Z M 90.488281 0 "/>
<path style=" stroke:none;fill-rule:nonzero;fill:rgb(100%,60.392157%,0%);fill-opacity:1;" d="M 246.984375 298.546875 L 167.777344 298.546875 L 151.597656 348.660156 C 151.171875 350.578125 149.46875 351.859375 147.550781 351.644531 L 107.523438 351.644531 C 105.179688 351.644531 104.542969 350.367188 105.179688 347.808594 L 173.738281 150.125 C 174.378906 147.992188 175.015625 145.648438 175.871094 143.089844 C 176.722656 138.609375 177.148438 133.917969 177.148438 129.226562 C 176.933594 128.160156 177.785156 127.097656 178.851562 126.882812 L 233.996094 126.882812 C 235.699219 126.882812 236.550781 127.523438 236.761719 128.589844 L 314.476562 348.234375 C 315.117188 350.578125 314.476562 351.644531 312.347656 351.644531 L 267.847656 351.644531 C 266.359375 351.859375 264.867188 350.792969 264.441406 349.300781 Z M 180.128906 255.257812 L 234.207031 255.257812 C 232.929688 250.78125 231.226562 245.449219 229.3125 239.902344 C 227.394531 234.144531 225.480469 227.960938 223.5625 221.566406 C 221.433594 214.953125 219.515625 208.554688 217.386719 201.945312 C 215.257812 195.335938 213.34375 189.152344 211.640625 182.964844 C 209.9375 176.996094 208.445312 171.453125 206.953125 166.332031 L 206.527344 166.332031 C 204.613281 175.503906 202.269531 184.671875 199.289062 193.84375 C 196.097656 204.078125 192.902344 214.742188 189.496094 225.402344 C 186.515625 236.277344 183.320312 246.300781 180.128906 255.257812 Z M 361.957031 164.199219 C 354.933594 164.414062 348.117188 161.640625 343.007812 156.738281 C 338.113281 151.40625 335.558594 144.367188 335.769531 137.117188 C 335.558594 129.867188 338.324219 123.042969 343.433594 118.140625 C 348.542969 113.234375 355.359375 110.675781 362.382812 110.675781 C 370.6875 110.675781 377.074219 113.234375 381.757812 118.140625 C 386.445312 123.257812 389 130.082031 388.785156 137.117188 C 389 144.367188 386.445312 151.40625 381.332031 156.738281 C 376.4375 161.855469 369.199219 164.628906 361.957031 164.199219 Z M 338.113281 349.300781 L 338.113281 185.097656 C 338.113281 182.964844 338.964844 182.113281 340.878906 182.113281 L 383.035156 182.113281 C 384.953125 182.113281 385.804688 183.179688 385.804688 185.097656 L 385.804688 349.300781 C 385.804688 351.644531 384.953125 352.710938 383.035156 352.710938 L 341.304688 352.710938 C 339.175781 352.710938 338.113281 351.433594 338.113281 349.300781 Z M 338.113281 349.300781 "/>
</g>
</svg>
