<?xml version="1.0" encoding="UTF-8"?>
<svg xmlns="http://www.w3.org/2000/svg" xmlns:xlink="http://www.w3.org/1999/xlink" width="512px" height="499px" viewBox="0 0 511 499" version="1.1">
<g id="surface1">
<path style=" stroke:none;fill-rule:nonzero;fill:rgb(0%,0%,35.686275%);fill-opacity:1;" d="M 90.488281 0 L 420.511719 0 C 470.546875 0 511 40.515625 511 90.628906 L 511 408.371094 C 511 458.484375 470.546875 499 420.511719 499 L 90.488281 499 C 40.453125 499 0 458.484375 0 408.371094 L 0 90.628906 C 0 40.515625 40.453125 0 90.488281 0 Z M 90.488281 0 "/>
<path style=" stroke:none;fill-rule:nonzero;fill:rgb(60%,60%,100%);fill-opacity:1;" d="M 121.363281 349.726562 L 121.363281 130.082031 C 121.363281 128.589844 122 127.734375 123.492188 127.734375 C 127.109375 127.734375 130.519531 127.734375 135.414062 127.523438 C 140.523438 127.308594 145.847656 127.308594 151.597656 127.097656 C 157.34375 126.882812 163.519531 126.882812 170.121094 126.667969 C 176.722656 126.457031 183.109375 126.457031 189.496094 126.457031 C 206.953125 126.457031 221.433594 128.589844 233.355469 133.066406 C 244.003906 136.691406 253.796875 142.664062 261.886719 150.554688 C 268.699219 157.375 274.023438 165.695312 277.429688 174.863281 C 280.625 183.820312 282.328125 192.988281 282.328125 202.585938 C 282.328125 220.925781 278.070312 236.066406 269.550781 248.007812 C 261.035156 259.949219 249.113281 268.90625 235.273438 274.023438 C 220.792969 279.355469 204.824219 281.273438 187.367188 281.273438 C 182.257812 281.273438 178.851562 281.273438 176.722656 281.0625 C 174.589844 280.847656 171.609375 280.847656 167.566406 280.847656 L 167.566406 349.300781 C 167.777344 350.792969 166.714844 352.070312 165.222656 352.285156 L 123.917969 352.285156 C 122.214844 352.285156 121.363281 351.433594 121.363281 349.511719 Z M 167.777344 169.105469 L 167.777344 240.757812 C 170.757812 240.96875 173.527344 241.183594 176.082031 241.183594 L 187.367188 241.183594 C 195.671875 241.183594 203.972656 239.902344 211.851562 237.34375 C 218.664062 235.425781 224.628906 231.375 229.3125 226.042969 C 233.78125 220.710938 235.910156 213.460938 235.910156 204.078125 C 236.125 197.46875 234.421875 190.855469 231.015625 185.097656 C 227.394531 179.554688 222.285156 175.289062 216.109375 172.945312 C 208.234375 169.746094 199.714844 168.464844 190.984375 168.679688 C 185.449219 168.679688 180.554688 168.679688 176.507812 168.890625 C 172.25 168.679688 169.269531 168.890625 167.777344 169.105469 Z M 167.777344 169.105469 "/>
<path style=" stroke:none;fill-rule:nonzero;fill:rgb(60%,60%,100%);fill-opacity:1;" d="M 312.988281 181.6875 L 350.246094 181.6875 C 352.378906 181.6875 354.082031 183.179688 354.71875 185.097656 C 355.359375 186.804688 355.785156 188.511719 355.996094 190.429688 C 356.421875 192.5625 356.847656 194.910156 357.0625 197.042969 C 357.273438 199.386719 357.488281 201.945312 357.488281 204.71875 C 363.875 197.253906 371.539062 191.070312 380.269531 186.378906 C 390.0625 180.835938 401.347656 178.0625 412.632812 178.0625 C 414.121094 177.847656 415.402344 178.914062 415.613281 180.40625 L 415.613281 222.84375 C 415.613281 224.550781 414.546875 225.191406 412.207031 225.191406 C 404.542969 224.976562 396.664062 225.617188 389.210938 227.320312 C 383.035156 228.601562 377.074219 230.519531 371.328125 233.078125 C 367.28125 235 363.449219 237.558594 360.46875 240.96875 L 360.46875 349.726562 C 360.46875 351.859375 359.617188 352.710938 357.699219 352.710938 L 315.753906 352.710938 C 314.050781 352.925781 312.5625 351.859375 312.347656 350.152344 L 312.347656 231.160156 C 312.347656 226.042969 312.347656 220.710938 312.136719 215.167969 C 311.921875 209.621094 311.921875 204.078125 311.710938 198.535156 C 311.710938 193.628906 311.285156 188.9375 310.859375 184.03125 C 310.644531 182.964844 311.285156 181.902344 312.347656 181.6875 C 312.347656 181.472656 312.773438 181.472656 312.988281 181.6875 Z M 312.988281 181.6875 "/>
</g>
</svg>
