<?xml version="1.0" encoding="UTF-8"?>
<svg xmlns="http://www.w3.org/2000/svg" xmlns:xlink="http://www.w3.org/1999/xlink" width="512px" height="499px" viewBox="0 0 511 499" version="1.1">
<g id="surface1">
<path style=" stroke:none;fill-rule:nonzero;fill:rgb(0%,11.764706%,21.176471%);fill-opacity:1;" d="M 90.488281 0 L 420.511719 0 C 470.546875 0 511 40.515625 511 90.628906 L 511 408.371094 C 511 458.484375 470.546875 499 420.511719 499 L 90.488281 499 C 40.453125 499 0 458.484375 0 408.371094 L 0 90.628906 C 0 40.515625 40.453125 0 90.488281 0 Z M 90.488281 0 "/>
<path style=" stroke:none;fill-rule:nonzero;fill:rgb(19.215686%,65.882353%,100%);fill-opacity:1;" d="M 114.976562 349.941406 L 114.976562 130.507812 C 114.976562 129.015625 115.613281 128.160156 117.105469 128.160156 C 120.722656 128.160156 124.128906 128.160156 129.027344 127.949219 C 134.136719 127.734375 139.460938 127.734375 145.210938 127.523438 C 150.957031 127.308594 157.132812 127.308594 163.734375 127.097656 C 170.332031 126.882812 176.722656 126.882812 183.109375 126.882812 C 200.566406 126.882812 215.046875 129.015625 226.96875 133.492188 C 237.613281 137.117188 247.410156 143.089844 255.5 150.980469 C 262.3125 157.804688 267.636719 166.121094 271.042969 175.289062 C 274.238281 184.246094 275.941406 193.414062 275.941406 203.011719 C 275.941406 221.351562 271.683594 236.492188 263.164062 248.433594 C 254.648438 260.375 242.726562 269.332031 228.886719 274.449219 C 214.40625 279.78125 198.4375 281.699219 180.980469 281.699219 C 175.871094 281.699219 172.460938 281.699219 170.332031 281.488281 C 168.203125 281.273438 165.222656 281.273438 161.179688 281.273438 L 161.179688 349.726562 C 161.390625 351.21875 160.328125 352.5 158.835938 352.710938 C 158.621094 352.710938 158.410156 352.710938 157.984375 352.710938 L 117.53125 352.710938 C 115.828125 352.710938 114.976562 351.859375 114.976562 349.941406 Z M 161.390625 169.320312 L 161.390625 240.96875 C 164.371094 241.183594 167.140625 241.398438 169.695312 241.398438 L 180.980469 241.398438 C 189.28125 241.398438 197.585938 240.117188 205.464844 237.558594 C 212.277344 235.640625 218.238281 231.585938 222.921875 226.257812 C 227.394531 220.925781 229.523438 213.675781 229.523438 204.292969 C 229.738281 197.679688 228.035156 191.070312 224.628906 185.3125 C 221.007812 179.769531 215.898438 175.503906 209.722656 173.15625 C 201.84375 169.957031 193.328125 168.679688 184.597656 168.890625 C 179.0625 168.890625 174.164062 168.890625 170.121094 169.105469 C 165.863281 168.890625 162.882812 169.105469 161.390625 169.320312 Z M 161.390625 169.320312 "/>
<path style=" stroke:none;fill-rule:nonzero;fill:rgb(19.215686%,65.882353%,100%);fill-opacity:1;" d="M 408.800781 227.960938 C 402.414062 224.550781 395.597656 222.203125 388.359375 220.710938 C 380.480469 219.003906 372.605469 217.9375 364.511719 217.9375 C 360.253906 217.726562 355.785156 218.367188 351.738281 219.433594 C 348.96875 220.070312 346.628906 221.566406 345.136719 223.695312 C 344.074219 225.402344 343.433594 227.535156 343.433594 229.453125 C 343.433594 231.375 344.285156 233.292969 345.5625 235 C 347.480469 237.34375 350.035156 239.265625 352.804688 240.757812 C 357.699219 243.316406 362.808594 245.660156 367.921875 247.792969 C 379.417969 251.632812 390.488281 256.964844 400.710938 263.359375 C 407.734375 267.839844 413.484375 273.808594 417.53125 281.0625 C 420.9375 287.882812 422.640625 295.347656 422.425781 303.023438 C 422.640625 313.046875 419.660156 323.070312 414.121094 331.386719 C 408.160156 339.917969 399.859375 346.527344 390.277344 350.367188 C 379.84375 354.84375 367.066406 357.191406 351.738281 357.191406 C 341.945312 357.191406 332.363281 356.335938 322.78125 354.417969 C 315.328125 353.136719 307.878906 350.792969 301.0625 347.59375 C 299.574219 346.742188 298.507812 345.25 298.722656 343.542969 L 298.722656 306.4375 C 298.722656 305.796875 298.933594 304.945312 299.574219 304.519531 C 300.210938 304.089844 300.851562 304.304688 301.488281 304.730469 C 309.792969 309.636719 318.523438 313.046875 327.890625 315.179688 C 335.984375 317.3125 344.5 318.378906 353.015625 318.378906 C 361.105469 318.378906 366.855469 317.3125 370.6875 315.394531 C 374.09375 313.902344 376.4375 310.277344 376.4375 306.4375 C 376.4375 303.453125 374.734375 300.679688 371.328125 297.90625 C 367.921875 295.136719 360.894531 291.9375 350.460938 287.882812 C 339.601562 284.046875 329.59375 278.929688 320.226562 272.53125 C 313.625 267.839844 308.089844 261.65625 304.046875 254.40625 C 300.636719 247.582031 298.933594 240.117188 299.148438 232.652344 C 299.148438 223.484375 301.703125 214.742188 306.386719 206.851562 C 311.710938 198.320312 319.589844 191.496094 328.742188 187.230469 C 338.75 182.113281 351.3125 179.769531 366.429688 179.769531 C 375.160156 179.769531 384.101562 180.40625 392.832031 181.6875 C 399.21875 182.539062 405.394531 184.246094 411.140625 186.59375 C 411.992188 186.804688 412.84375 187.65625 413.269531 188.511719 C 413.484375 189.363281 413.695312 190.21875 413.695312 191.070312 L 413.695312 225.828125 C 413.695312 226.683594 413.269531 227.535156 412.632812 227.960938 C 410.714844 228.386719 409.652344 228.386719 408.800781 227.960938 Z M 408.800781 227.960938 "/>
</g>
</svg>
