<?xml version="1.0" encoding="UTF-8"?>
<svg xmlns="http://www.w3.org/2000/svg" xmlns:xlink="http://www.w3.org/1999/xlink" width="512px" height="499px" viewBox="0 0 511 499" version="1.1">
<g id="surface1">
<path style=" stroke:none;fill-rule:nonzero;fill:rgb(0%,0%,35.686275%);fill-opacity:1;" d="M 90.488281 0 L 420.511719 0 C 470.546875 0 511 40.515625 511 90.628906 L 511 408.371094 C 511 458.484375 470.546875 499 420.511719 499 L 90.488281 499 C 40.453125 499 0 458.484375 0 408.371094 L 0 90.628906 C 0 40.515625 40.453125 0 90.488281 0 Z M 90.488281 0 "/>
<path style=" stroke:none;fill-rule:nonzero;fill:rgb(60%,60%,100%);fill-opacity:1;" d="M 205.25 298.546875 L 126.046875 298.546875 L 109.863281 348.875 C 109.4375 350.792969 107.734375 352.070312 105.820312 351.859375 L 65.792969 351.859375 C 63.449219 351.859375 62.808594 350.578125 63.449219 348.019531 L 132.007812 151.191406 C 132.648438 149.058594 133.285156 147.140625 134.136719 144.582031 C 134.988281 140.105469 135.414062 135.414062 135.414062 130.722656 C 135.203125 129.65625 136.054688 128.589844 137.117188 128.375 L 192.265625 128.375 C 193.753906 128.375 194.820312 129.015625 195.03125 130.082031 L 272.746094 347.59375 C 273.386719 349.941406 272.746094 351.007812 270.617188 351.007812 L 226.117188 351.007812 C 224.628906 351.21875 223.136719 350.152344 222.710938 348.660156 L 205.25 297.480469 Z M 138.394531 256.109375 L 192.476562 256.109375 C 191.199219 251.632812 189.496094 246.300781 187.578125 240.757812 C 185.664062 235 183.746094 228.816406 181.832031 222.417969 C 179.703125 215.808594 177.785156 209.410156 175.65625 202.796875 C 173.527344 196.1875 171.609375 190.003906 169.90625 183.820312 C 168.203125 177.847656 166.714844 172.304688 165.222656 167.1875 L 164.796875 167.1875 C 162.882812 176.355469 160.539062 185.527344 157.558594 194.695312 C 154.363281 204.929688 151.171875 215.59375 147.765625 226.257812 C 144.996094 237.132812 141.589844 247.152344 138.394531 256.109375 Z M 138.394531 256.109375 "/>
<path style=" stroke:none;fill-rule:nonzero;fill:rgb(60%,60%,100%);fill-opacity:1;" d="M 398.152344 279.355469 L 330.660156 279.355469 C 331.511719 285.964844 333.640625 292.574219 337.261719 298.332031 C 341.09375 304.089844 346.414062 308.570312 352.804688 311.128906 C 361.320312 314.753906 370.6875 316.671875 380.054688 316.460938 C 387.507812 316.246094 394.960938 315.605469 402.199219 314.113281 C 408.800781 313.261719 415.1875 311.554688 421.148438 309.210938 C 422.214844 308.355469 422.851562 308.78125 422.851562 310.914062 L 422.851562 343.542969 C 422.851562 344.394531 422.640625 345.25 422.425781 346.101562 C 422 346.742188 421.574219 347.167969 420.9375 347.59375 C 414.121094 350.578125 407.097656 352.710938 399.644531 353.992188 C 389.636719 355.910156 379.628906 356.765625 369.410156 356.550781 C 353.230469 356.550781 339.601562 353.992188 328.53125 349.085938 C 318.097656 344.609375 308.941406 337.570312 301.703125 328.828125 C 294.890625 320.511719 289.992188 311.128906 287.011719 300.894531 C 284.03125 290.871094 282.539062 280.421875 282.539062 269.757812 C 282.539062 258.242188 284.242188 246.941406 287.863281 235.851562 C 291.269531 225.191406 296.59375 215.378906 303.832031 206.636719 C 310.859375 198.105469 319.589844 191.285156 329.59375 186.378906 C 339.601562 181.472656 351.527344 179.769531 365.152344 179.769531 C 376.4375 179.554688 387.722656 181.6875 398.152344 186.378906 C 406.882812 190.21875 414.546875 195.976562 420.511719 203.4375 C 426.046875 210.6875 430.515625 218.792969 433.285156 227.75 C 436.054688 236.277344 437.332031 245.023438 437.332031 253.765625 C 437.332031 258.882812 437.117188 263.359375 436.90625 267.414062 C 436.480469 271.464844 436.265625 274.449219 436.054688 276.371094 C 435.839844 277.863281 434.5625 279.140625 433.074219 279.140625 C 431.796875 279.140625 429.453125 279.355469 426.046875 279.566406 C 422.640625 279.996094 418.59375 280.207031 413.695312 280.207031 C 408.800781 280.207031 403.691406 279.355469 398.152344 279.355469 Z M 330.660156 248.21875 L 375.585938 248.21875 C 381.121094 248.21875 385.167969 248.21875 387.722656 248.007812 C 389.425781 247.792969 391.128906 247.367188 392.617188 246.300781 L 392.617188 244.167969 C 392.617188 241.398438 392.191406 238.835938 391.339844 236.277344 C 387.507812 224.335938 376.222656 216.234375 363.660156 216.660156 C 351.953125 216.019531 340.878906 222.203125 335.34375 232.867188 C 332.789062 237.769531 331.296875 242.890625 330.660156 248.21875 Z M 330.660156 248.21875 "/>
</g>
</svg>
