<?xml version="1.0" encoding="UTF-8"?>
<svg xmlns="http://www.w3.org/2000/svg" xmlns:xlink="http://www.w3.org/1999/xlink" width="512px" height="499px" viewBox="0 0 511 499" version="1.1">
<g id="surface1">
<path style=" stroke:none;fill-rule:nonzero;fill:rgb(27.843137%,0.392157%,21.568627%);fill-opacity:1;" d="M 90.488281 0 L 420.511719 0 C 470.546875 0 511 40.515625 511 90.628906 L 511 408.371094 C 511 458.484375 470.546875 499 420.511719 499 L 90.488281 499 C 40.453125 499 0 458.484375 0 408.371094 L 0 90.628906 C 0 40.515625 40.453125 0 90.488281 0 Z M 90.488281 0 "/>
<path style=" stroke:none;fill-rule:nonzero;fill:rgb(100%,38.039216%,96.470588%);fill-opacity:1;" d="M 268.699219 131.148438 L 204.824219 236.707031 L 272.960938 348.660156 C 273.386719 349.511719 273.597656 350.367188 273.386719 351.21875 C 273.171875 352.070312 272.320312 351.433594 271.042969 351.644531 L 222.285156 351.644531 C 218.878906 351.644531 216.535156 351.433594 215.046875 349.300781 C 210.574219 340.34375 205.890625 331.601562 201.417969 322.644531 C 196.949219 313.902344 192.050781 304.945312 186.941406 295.773438 C 181.832031 286.605469 176.722656 277.433594 171.609375 268.050781 L 171.183594 268.050781 C 166.714844 277.222656 161.816406 286.390625 156.917969 295.5625 C 152.023438 304.730469 147.125 313.902344 142.441406 322.855469 C 137.542969 331.8125 132.648438 340.984375 127.75 349.726562 C 126.898438 351.859375 125.195312 352.070312 122.851562 352.070312 L 76.011719 352.070312 C 75.160156 352.070312 74.519531 352.5 74.519531 351.433594 C 74.308594 350.578125 74.519531 349.726562 74.945312 349.085938 L 141.164062 240.332031 L 76.648438 130.933594 C 76.011719 130.082031 75.796875 129.226562 76.222656 128.800781 C 76.648438 128.160156 77.5 127.949219 78.351562 127.949219 L 126.683594 127.949219 C 127.75 127.949219 128.816406 128.160156 129.667969 128.375 C 130.519531 128.800781 131.15625 129.441406 131.796875 130.292969 C 135.839844 139.464844 140.523438 148.632812 145.421875 157.804688 C 150.53125 166.972656 155.429688 175.929688 160.753906 184.886719 C 165.863281 193.84375 170.546875 202.796875 175.015625 211.96875 L 175.441406 211.96875 C 179.914062 202.585938 184.597656 193.414062 189.28125 184.460938 C 193.96875 175.503906 198.863281 166.546875 203.761719 157.589844 C 208.660156 148.632812 213.34375 139.464844 218.027344 130.722656 C 218.238281 129.867188 218.664062 129.015625 219.304688 128.589844 C 220.15625 128.160156 221.007812 127.949219 222.070312 128.160156 L 266.996094 128.160156 C 268.0625 127.949219 269.125 128.589844 269.339844 129.65625 C 269.550781 129.867188 269.125 130.722656 268.699219 131.148438 Z M 268.699219 131.148438 "/>
<path style=" stroke:none;fill-rule:nonzero;fill:rgb(100%,38.039216%,96.470588%);fill-opacity:1;" d="M 367.066406 356.125 C 351.3125 356.335938 335.558594 353.136719 321.292969 346.527344 C 307.878906 340.34375 296.804688 330.109375 289.140625 317.527344 C 281.261719 304.519531 277.429688 288.3125 277.429688 268.90625 C 277.21875 253.125 281.261719 237.558594 289.140625 223.910156 C 297.230469 210.050781 308.941406 198.535156 322.996094 190.855469 C 337.898438 182.539062 355.785156 178.488281 376.863281 178.488281 C 377.925781 178.488281 379.417969 178.488281 381.332031 178.703125 C 383.25 178.914062 385.378906 178.914062 387.933594 179.128906 L 387.933594 111.742188 C 387.933594 110.25 388.574219 109.394531 390.0625 109.394531 L 433.285156 109.394531 C 434.351562 109.183594 435.203125 110.035156 435.414062 110.890625 C 435.414062 111.101562 435.414062 111.316406 435.414062 111.316406 L 435.414062 314.328125 C 435.414062 318.164062 435.628906 322.429688 435.839844 327.121094 C 436.265625 331.601562 436.480469 335.867188 436.691406 339.492188 C 436.691406 340.984375 436.054688 342.261719 434.5625 342.902344 C 423.492188 347.59375 411.78125 351.007812 399.859375 353.136719 C 389 355.058594 378.140625 356.125 367.066406 356.125 Z M 387.933594 313.472656 L 387.933594 219.644531 C 386.019531 219.21875 384.101562 218.792969 382.183594 218.578125 C 379.84375 218.367188 377.5 218.152344 375.160156 218.152344 C 366.855469 218.152344 358.550781 219.859375 351.097656 223.695312 C 343.859375 227.320312 337.6875 232.652344 333 239.476562 C 328.316406 246.300781 325.976562 255.472656 325.976562 266.558594 C 325.761719 274.023438 327.039062 281.488281 329.59375 288.523438 C 331.722656 294.28125 334.917969 299.398438 339.175781 303.664062 C 343.222656 307.503906 348.117188 310.488281 353.65625 312.195312 C 359.402344 314.113281 365.363281 314.96875 371.328125 314.96875 C 374.519531 314.96875 377.5 314.753906 380.269531 314.539062 C 383.035156 314.753906 385.378906 314.328125 387.933594 313.472656 Z M 387.933594 313.472656 "/>
</g>
</svg>
