<?xml version="1.0" encoding="UTF-8"?>
<svg xmlns="http://www.w3.org/2000/svg" xmlns:xlink="http://www.w3.org/1999/xlink" width="512px" height="499px" viewBox="0 0 332 499" version="1.1">
<g id="surface1">
<path style=" stroke:none;fill-rule:nonzero;fill:rgb(3.921569%,81.176471%,51.372549%);fill-opacity:1;" d="M 83.015625 499 C 128.824219 499 166 461.742188 166 415.832031 L 166 332.667969 L 83.015625 332.667969 C 37.210938 332.667969 0.03125 369.925781 0.03125 415.832031 C 0.03125 461.742188 37.210938 499 83.015625 499 Z M 83.015625 499 "/>
<path style=" stroke:none;fill-rule:nonzero;fill:rgb(63.529412%,34.901961%,100%);fill-opacity:1;" d="M 0.03125 249.5 C 0.03125 203.59375 37.210938 166.332031 83.015625 166.332031 L 166 166.332031 L 166 332.667969 L 83.015625 332.667969 C 37.210938 332.667969 0.03125 295.40625 0.03125 249.5 Z M 0.03125 249.5 "/>
<path style=" stroke:none;fill-rule:nonzero;fill:rgb(94.901961%,30.588235%,11.764706%);fill-opacity:1;" d="M 0.03125 83.167969 C 0.03125 37.257812 37.210938 0 83.015625 0 L 166 0 L 166 166.332031 L 83.015625 166.332031 C 37.210938 166.332031 0.03125 129.074219 0.03125 83.167969 Z M 0.03125 83.167969 "/>
<path style=" stroke:none;fill-rule:nonzero;fill:rgb(100%,44.705882%,38.431373%);fill-opacity:1;" d="M 166 0 L 248.984375 0 C 294.789062 0 331.96875 37.257812 331.96875 83.167969 C 331.96875 129.074219 294.789062 166.332031 248.984375 166.332031 L 166 166.332031 Z M 166 0 "/>
<path style=" stroke:none;fill-rule:nonzero;fill:rgb(10.196078%,73.72549%,99.607843%);fill-opacity:1;" d="M 331.96875 249.5 C 331.96875 295.40625 294.789062 332.667969 248.984375 332.667969 C 203.175781 332.667969 166 295.40625 166 249.5 C 166 203.59375 203.175781 166.332031 248.984375 166.332031 C 294.789062 166.332031 331.96875 203.59375 331.96875 249.5 Z M 331.96875 249.5 "/>
</g>
</svg>
